PathFileType	4	(X/Y/Z)	D:\Research_projects\MuscleProsody\BulkSports2Dtrack\RetrackedSports2D\p1_sample60_cam1\p1_sample60_cam1_Sports2D\p1_sample60_cam1_Sports2D_px_person00.trc
DataRate	CameraRate	NumFrames	NumMarkers	Units	OrigDataRate	OrigDataStartFrame	OrigNumFrames
60	60	8	22	m	60	682	780
Frame#	Time	Hip			RHip			RKnee			RAnkle			RBigToe			RSmallToe			RHeel			LHip			LKnee			LAnkle			LBigToe			LSmallToe			LHeel			Neck			Head			Nose			RShoulder			RElbow			RWrist			LShoulder			LElbow			LWrist		
		X1	Y1	Z1	X2	Y2	Z2	X3	Y3	Z3	X4	Y4	Z4	X5	Y5	Z5	X6	Y6	Z6	X7	Y7	Z7	X8	Y8	Z8	X9	Y9	Z9	X10	Y10	Z10	X11	Y11	Z11	X12	Y12	Z12	X13	Y13	Z13	X14	Y14	Z14	X15	Y15	Z15	X16	Y16	Z16	X17	Y17	Z17	X18	Y18	Z18	X19	Y19	Z19	X20	Y20	Z20	X21	Y21	Z21	X22	Y22	Z22
682	11.366666666666667	320.6780727395932	549.8704088995354	0.0	292.6095789414649	561.2629393768519	0.0	283.4941308988383	691.7157932520655	0.0	273.338798104839	803.6221259828588	0.0	311.24166779961683	849.4422273677096	0.0	289.53998362583525	851.6294138113328	0.0	261.40920678314933	816.6881564441254	0.0	344.5538616776218	561.9344852589214	0.0	330.5227894166242	687.2606336777648	0.0	312.0960481900018	788.4184672031882	0.0	346.33424442580707	825.2647187771694	0.0	352.9464319353863	814.4389922937665	0.0	303.2537321722717	804.7025917381546	0.0	328.81827037001216	332.3485311940776	0.0	349.5846693360219	233.03214171731997	0.0	364.3711693747533	286.60435978852126	0.0	274.0665578182286	359.312624608002	0.0	234.91399360180532	447.0768703480817	0.0	294.01853018299687	470.49399157313826	0.0	363.2935771528956	366.94811674392366	0.0	361.3368476806085	453.074092031902	0.0	382.3845822789082	514.0008364858465	0.0
683	11.383333333333333	320.2952402607825	550.2821100097729	0.0	292.2331745084974	561.6278374310862	0.0	283.3269752027031	691.7736486967708	0.0	273.3241361659731	803.605867484524	0.0	311.6600969841567	849.408954274603	0.0	289.9971109399819	851.616272472224	0.0	261.2172861657235	816.758409604788	0.0	344.2421977684291	562.4187718172401	0.0	330.33117237853116	687.430626951065	0.0	312.12737832648304	788.5154974895979	0.0	346.3122733852001	825.2016150746631	0.0	352.94527006886926	814.3626955294054	0.0	303.37400750497414	804.7128940355591	0.0	328.8789875410503	332.31804283419467	0.0	349.3558938785715	232.98152931338868	0.0	364.4203627517248	286.51134977814047	0.0	274.16911863075245	359.5397305054015	0.0	236.20426982174902	449.60386145375134	0.0	303.0483356363806	474.18154604592377	0.0	363.3101217808454	367.0796345698333	0.0	360.9750702824344	453.9101361580659	0.0	382.43268391596587	514.2469915641894	0.0
684	11.4	319.8902944249664	550.7637156663341	0.0	291.8118116141457	562.0332663404351	0.0	283.1364477409477	691.8313930667625	0.0	273.33860560226003	803.6251361343142	0.0	312.0576982909688	849.3940787325923	0.0	290.37418212599084	851.5910371321929	0.0	261.16194273726956	816.9098082365986	0.0	343.8947567699769	562.9655981197538	0.0	330.1162523651572	687.6094703847428	0.0	312.1420257686718	788.579444315249	0.0	346.3665886539791	825.1387110563176	0.0	353.00844720684734	814.2550105148671	0.0	303.4876267182812	804.7143631171085	0.0	328.9395068206311	332.28996244179393	0.0	349.1703858124395	232.9301666772406	0.0	364.5217462358352	286.44472092844603	0.0	274.24380464645884	359.8640033119235	0.0	237.9030147274208	452.11626588903624	0.0	311.25768760764373	478.47456885977533	0.0	363.33019686886905	367.2271218551604	0.0	360.57787525193095	454.7782559411915	0.0	382.46921551273016	514.5765062121666	0.0
685	11.416666666666666	319.4833875460189	551.2948399307743	0.0	291.36425371168446	562.4614216813695	0.0	282.92852008424956	691.8760420005098	0.0	273.3786277819686	803.6777795587761	0.0	312.42230990747976	849.4003538278499	0.0	290.6659768297313	851.553261242799	0.0	261.24095742100457	817.1371293758613	0.0	343.5298317012911	563.5471932554278	0.0	329.88970427800183	687.785079967288	0.0	312.13961805142543	788.5904088824485	0.0	346.4941558634052	825.0868645930616	0.0	353.1340170928447	814.1300838146037	0.0	303.59590539322505	804.6943218614734	0.0	328.99581821279895	332.2636153467404	0.0	349.0314657865341	232.88353927282284	0.0	364.67223955299573	286.3932407463527	0.0	274.26756499313746	360.2958430957275	0.0	239.95316526644493	454.6110585559239	0.0	318.55509378234456	483.31800170484746	0.0	363.3546648434156	367.3817557517673	0.0	360.1914781840744	455.6421111001588	0.0	382.4885620149163	515.0136853634713	0.0
686	11.433333333333334	319.0955866186839	551.8475315759076	0.0	290.91266493793023	562.8918290982019	0.0	282.7157003123945	691.8968740315822	0.0	273.4359583467085	803.7558991929291	0.0	312.7372567932867	849.421574606343	0.0	290.86471699387346	851.4967791518615	0.0	261.4299308038125	817.4228705177707	0.0	343.1680250247899	564.1296011268352	0.0	329.66491801960444	687.9382419828077	0.0	312.1143418102228	788.5327111699737	0.0	346.6846185003669	825.0592898405107	0.0	353.3131642299362	814.010710261756	0.0	303.69141662242276	804.6443856799815	0.0	329.0441066064562	332.2395116613864	0.0	348.94199452663696	232.84380642257707	0.0	364.8554018319917	286.34875337726226	0.0	274.2220224393375	360.83332460404966	0.0	242.27889032316645	457.0725307268839	0.0	324.8614288161509	488.62627359680573	0.0	363.3849954110799	367.5379419141063	0.0	359.8699288766842	456.47793397029574	0.0	382.50262119859894	515.5943506378578	0.0
687	11.45	318.7473564917313	552.3953569108207	0.0	290.47915398129993	563.3060657057563	0.0	282.5127465751569	691.8917653690577	0.0	273.4998454198948	803.8460423206946	0.0	312.9893194774631	849.4446864905041	0.0	290.9661230659947	851.4121745525889	0.0	261.68475352438116	817.7387776227401	0.0	342.8316419360082	564.6830458156095	0.0	329.45199417790496	688.0503211906511	0.0	312.06061282826033	788.4032595934173	0.0	346.9242994240005	825.0655086395682	0.0	353.5327714518061	813.9174754197347	0.0	303.76418748529255	804.5647558043768	0.0	329.08019523687517	332.2185584262489	0.0	348.9036932654812	232.8089107425949	0.0	365.04573210255944	286.308873275264	0.0	274.096946169524	361.4616166911627	0.0	244.78960900593327	459.4730408199704	0.0	330.1134473202394	494.2881229772032	0.0	363.421430721163	367.6939058904535	0.0	359.66654651744835	457.2735567123036	0.0	382.53563563946994	516.360326635743	0.0
688	11.466666666666667	318.4576321672662	552.9206283032505	0.0	290.08302498471414	563.6931282182424	0.0	282.33192122578504	691.8699819555761	0.0	273.55978961285024	803.9364546743323	0.0	313.1768412220413	849.4555787456367	0.0	290.97712952594264	851.2944423254069	0.0	261.9557561476986	818.0577743515984	0.0	342.54488769003615	565.1906277483226	0.0	329.2559132942589	688.1146120433641	0.0	311.9798474459193	788.215875440649	0.0	347.2028678310555	825.1039677705629	0.0	353.7796191026224	813.8590799088873	0.0	303.81245249132115	804.4653123374245	0.0	329.0986973911139	332.20129444300693	0.0	348.9168410552693	232.77500487194897	0.0	365.2196645930709	286.2759176501794	0.0	273.8915115546712	362.1563539940524	0.0	247.3869605655024	461.7807277941263	0.0	334.26787428822723	500.1773964842826	0.0	363.46080336010766	367.84886238443255	0.0	359.61952809245696	458.0233543649313	0.0	382.6138695489996	517.3541121922464	0.0
689	11.483333333333333	318.2417363239673	553.4142214756623	0.0	289.73710077634325	564.0496956585973	0.0	282.18275214034657	691.8489005682734	0.0	273.6108036236505	804.0225026239527	0.0	313.30620533636096	849.444651613205	0.0	290.91044038012154	851.1461173710809	0.0	262.207530413649	818.3625578390762	0.0	342.3302528101537	565.6473443169676	0.0	329.0795770800332	688.1389688587233	0.0	311.88248159932755	787.9973253661988	0.0	347.51143432160603	825.1642542792164	0.0	354.0402446159532	813.8374587432099	0.0	303.84420439739284	804.3642566776111	0.0	329.0923471889825	332.1887251297129	0.0	348.9799641587768	232.74041204349115	0.0	365.36106197201474	286.25474162530173	0.0	273.6129590954783	362.88767291215	0.0	249.97705204691195	463.9666984002217	0.0	337.3098540429202	506.1689597692017	0.0	363.4973137623276	368.0024697658262	0.0	359.7402511489673	458.7299027693588	0.0	382.75365395070384	518.6108419416214	0.0
